<svg xmlns="http://www.w3.org/2000/svg" width="14" height="14" viewBox="0 0 14 14" fill="none">
  <g clip-path="url(#clip0_0_113)">
    <path d="M11.375 1.75006H10.0625V1.31256C10.0625 1.19653 10.0164 1.08525 9.93436 1.0032C9.85231 0.921155 9.74103 0.875061 9.625 0.875061C9.50897 0.875061 9.39769 0.921155 9.31564 1.0032C9.23359 1.08525 9.1875 1.19653 9.1875 1.31256V1.75006H4.8125V1.31256C4.8125 1.19653 4.76641 1.08525 4.68436 1.0032C4.60231 0.921155 4.49103 0.875061 4.375 0.875061C4.25897 0.875061 4.14769 0.921155 4.06564 1.0032C3.98359 1.08525 3.9375 1.19653 3.9375 1.31256V1.75006H2.625C2.39294 1.75006 2.17038 1.84225 2.00628 2.00634C1.84219 2.17044 1.75 2.393 1.75 2.62506V11.3751C1.75 11.6071 1.84219 11.8297 2.00628 11.9938C2.17038 12.1579 2.39294 12.2501 2.625 12.2501H11.375C11.6071 12.2501 11.8296 12.1579 11.9937 11.9938C12.1578 11.8297 12.25 11.6071 12.25 11.3751V2.62506C12.25 2.393 12.1578 2.17044 11.9937 2.00634C11.8296 1.84225 11.6071 1.75006 11.375 1.75006ZM11.375 4.37506H2.625V2.62506H3.9375V3.06256C3.9375 3.17859 3.98359 3.28987 4.06564 3.37192C4.14769 3.45397 4.25897 3.50006 4.375 3.50006C4.49103 3.50006 4.60231 3.45397 4.68436 3.37192C4.76641 3.28987 4.8125 3.17859 4.8125 3.06256V2.62506H9.1875V3.06256C9.1875 3.17859 9.23359 3.28987 9.31564 3.37192C9.39769 3.45397 9.50897 3.50006 9.625 3.50006C9.74103 3.50006 9.85231 3.45397 9.93436 3.37192C10.0164 3.28987 10.0625 3.17859 10.0625 3.06256V2.62506H11.375V4.37506Z" fill="#A6B7D4"/>
  </g>
  <defs>
    <clipPath id="clip0_0_113">
      <rect width="14" height="14" fill="white"/>
    </clipPath>
  </defs>
</svg>
