<svg xmlns="http://www.w3.org/2000/svg" width="20" height="20" viewBox="0 0 20 20" fill="none">
  <path d="M16.7373 9.6039C16.7136 9.50373 16.6656 9.41095 16.5974 9.33381C16.5293 9.25667 16.4431 9.19756 16.3467 9.16171L11.8459 7.47343L12.9912 1.74453C13.0171 1.61142 12.9991 1.47348 12.9397 1.35154C12.8804 1.2296 12.783 1.13027 12.6623 1.06853C12.5415 1.00679 12.404 0.985996 12.2704 1.00929C12.1368 1.03258 12.0144 1.09869 11.9217 1.19765L3.17166 10.5727C3.10059 10.6475 3.04918 10.7389 3.02202 10.8385C2.99486 10.9381 2.99279 11.0428 3.01601 11.1434C3.03922 11.244 3.08699 11.3373 3.15505 11.4149C3.22311 11.4925 3.30934 11.5521 3.40603 11.5883L7.90838 13.2766L6.76619 18.9992C6.74025 19.1323 6.75832 19.2703 6.81765 19.3922C6.87699 19.5141 6.97437 19.6135 7.09512 19.6752C7.21586 19.737 7.3534 19.7577 7.487 19.7345C7.6206 19.7112 7.74299 19.645 7.83572 19.5461L16.5857 10.1711C16.6555 10.0962 16.7058 10.0053 16.7322 9.9064C16.7587 9.8075 16.7604 9.70362 16.7373 9.6039ZM8.42322 17.0906L9.24119 12.9984C9.27046 12.8533 9.24727 12.7025 9.17573 12.5729C9.10419 12.4432 8.98896 12.3432 8.85056 12.2906L4.72244 10.7398L11.3334 3.65703L10.5162 7.74921C10.4869 7.89435 10.5101 8.04516 10.5816 8.17478C10.6532 8.30441 10.7684 8.40443 10.9068 8.45703L15.0318 10.0039L8.42322 17.0906Z" fill="#4C6FFF"/>
</svg>
