<svg xmlns="http://www.w3.org/2000/svg" width="20" height="20" viewBox="0 0 20 20" fill="none">
  <path d="M17.625 16.125H17V3.625C17 3.45924 16.9342 3.30027 16.8169 3.18306C16.6997 3.06585 16.5408 3 16.375 3H12C11.8342 3 11.6753 3.06585 11.5581 3.18306C11.4408 3.30027 11.375 3.45924 11.375 3.625V6.75H7.625C7.45924 6.75 7.30027 6.81585 7.18306 6.93306C7.06585 7.05027 7 7.20924 7 7.375V10.5H3.875C3.70924 10.5 3.55027 10.5658 3.43306 10.6831C3.31585 10.8003 3.25 10.9592 3.25 11.125V16.125H2.625C2.45924 16.125 2.30027 16.1908 2.18306 16.3081C2.06585 16.4253 2 16.5842 2 16.75C2 16.9158 2.06585 17.0747 2.18306 17.1919C2.30027 17.3092 2.45924 17.375 2.625 17.375H17.625C17.7908 17.375 17.9497 17.3092 18.0669 17.1919C18.1842 17.0747 18.25 16.9158 18.25 16.75C18.25 16.5842 18.1842 16.4253 18.0669 16.3081C17.9497 16.1908 17.7908 16.125 17.625 16.125ZM12.625 4.25H15.75V16.125H12.625V4.25ZM8.25 8H11.375V16.125H8.25V8ZM4.5 11.75H7V16.125H4.5V11.75Z" fill="#4C6FFF"/>
</svg>
