<svg xmlns="http://www.w3.org/2000/svg" width="20" height="20" viewBox="0 0 20 20" fill="none">
  <path d="M9.6906 12.2396C10.5003 11.7047 11.115 10.9253 11.4439 10.0168C11.7727 9.10835 11.7982 8.11895 11.5167 7.19495C11.2351 6.27095 10.6614 5.46141 9.88032 4.88603C9.09928 4.31066 8.15239 4 7.17969 4C6.20698 4 5.26009 4.31066 4.47905 4.88603C3.69801 5.46141 3.12428 6.27095 2.84271 7.19495C2.56113 8.11895 2.58665 9.10835 2.91551 10.0168C3.24436 10.9253 3.85908 11.7047 4.66877 12.2396C3.20413 12.7754 1.95329 13.7667 1.10289 15.0658C1.0582 15.1317 1.02715 15.2058 1.01156 15.2837C0.995974 15.3616 0.996149 15.4419 1.01208 15.5197C1.02801 15.5976 1.05937 15.6716 1.10435 15.7373C1.14933 15.803 1.20703 15.8592 1.27409 15.9026C1.34115 15.946 1.41623 15.9758 1.49498 15.9901C1.57372 16.0045 1.65456 16.0032 1.73279 15.9862C1.81101 15.9693 1.88507 15.9371 1.95065 15.8916C2.01624 15.846 2.07204 15.7879 2.11481 15.7208C2.66335 14.8835 3.41396 14.1955 4.29847 13.7192C5.18297 13.2429 6.17336 12.9934 7.17969 12.9934C8.18601 12.9934 9.1764 13.2429 10.0609 13.7192C10.9454 14.1955 11.696 14.8835 12.2446 15.7208C12.3332 15.8515 12.47 15.9423 12.6256 15.9736C12.7812 16.005 12.9429 15.9743 13.0758 15.8883C13.2088 15.8022 13.3023 15.6677 13.3361 15.5138C13.3699 15.3598 13.3413 15.1989 13.2565 15.0658C12.4061 13.7667 11.1552 12.7754 9.6906 12.2396ZM3.85697 8.49845C3.85697 7.84626 4.05185 7.20872 4.41695 6.66644C4.78205 6.12417 5.30099 5.70151 5.90814 5.45193C6.51529 5.20235 7.18337 5.13705 7.82792 5.26428C8.47246 5.39152 9.06451 5.70558 9.5292 6.16675C9.99389 6.62791 10.3103 7.21547 10.4386 7.85513C10.5668 8.49479 10.501 9.15781 10.2495 9.76035C9.99799 10.3629 9.57211 10.8779 9.02569 11.2402C8.47927 11.6026 7.83686 11.796 7.17969 11.796C6.29875 11.795 5.45419 11.4472 4.83128 10.8291C4.20836 10.2109 3.85797 9.3727 3.85697 8.49845ZM19.726 15.8954C19.5918 15.9822 19.4283 16.0126 19.2715 15.9799C19.1148 15.9471 18.9775 15.8539 18.89 15.7208C18.3421 14.883 17.5916 14.1947 16.7069 13.7186C15.8222 13.2425 14.8315 12.9937 13.8251 12.9951C13.6649 12.9951 13.5112 12.9319 13.3979 12.8195C13.2846 12.707 13.221 12.5545 13.221 12.3955C13.221 12.2365 13.2846 12.084 13.3979 11.9716C13.5112 11.8591 13.6649 11.796 13.8251 11.796C14.3144 11.7955 14.7976 11.6878 15.2401 11.4805C15.6827 11.2733 16.0736 10.9716 16.385 10.597C16.6964 10.2224 16.9206 9.7842 17.0416 9.31366C17.1625 8.84313 17.1773 8.35188 17.0848 7.87503C16.9923 7.39817 16.7948 6.94748 16.5064 6.55515C16.218 6.16283 15.8459 5.83855 15.4166 5.60549C14.9873 5.37244 14.5115 5.23636 14.0231 5.20697C13.5346 5.17758 13.0457 5.25562 12.5912 5.4355C12.5171 5.46729 12.4373 5.48402 12.3566 5.4847C12.2758 5.48537 12.1958 5.46998 12.1211 5.43944C12.0465 5.40889 11.9788 5.36381 11.922 5.30686C11.8652 5.2499 11.8205 5.18223 11.7905 5.10784C11.7606 5.03344 11.7459 4.95384 11.7474 4.87373C11.749 4.79363 11.7667 4.71464 11.7995 4.64143C11.8323 4.56823 11.8796 4.5023 11.9385 4.44753C11.9975 4.39277 12.0669 4.35028 12.1426 4.32258C13.1828 3.91088 14.3398 3.89607 15.3904 4.28099C16.4409 4.66592 17.3106 5.42332 17.8317 6.40708C18.3528 7.39084 18.4883 8.53124 18.2121 9.6083C17.9359 10.6854 17.2676 11.6227 16.336 12.2396C17.8007 12.7754 19.0515 13.7667 19.9019 15.0658C19.9894 15.1989 20.02 15.3612 19.987 15.5167C19.954 15.6723 19.8601 15.8085 19.726 15.8954Z" fill="#4C6FFF"/>
</svg>
