<svg xmlns="http://www.w3.org/2000/svg" width="20" height="20" viewBox="0 0 20 20" fill="none">
  <path d="M10.125 2C8.51803 2 6.94714 2.47652 5.611 3.36931C4.27485 4.2621 3.23344 5.53105 2.61848 7.0157C2.00352 8.50035 1.84262 10.134 2.15612 11.7101C2.46963 13.2862 3.24346 14.7339 4.37976 15.8702C5.51606 17.0065 6.9638 17.7804 8.5399 18.0939C10.116 18.4074 11.7497 18.2465 13.2343 17.6315C14.719 17.0166 15.9879 15.9752 16.8807 14.639C17.7735 13.3029 18.25 11.732 18.25 10.125C18.2477 7.97081 17.391 5.90551 15.8677 4.38227C14.3445 2.85903 12.2792 2.00227 10.125 2ZM15.7398 6.16172L10.75 9.04219V3.27891C11.7408 3.36974 12.7001 3.67454 13.5616 4.17226C14.4231 4.66998 15.1663 5.34876 15.7398 6.16172ZM9.5 3.27891V9.76328L3.8836 13.0055C3.42253 12.0061 3.20813 10.9107 3.2584 9.81128C3.30868 8.71185 3.62216 7.64056 4.17251 6.68747C4.72285 5.73438 5.49396 4.92734 6.42103 4.3342C7.34809 3.74106 8.40401 3.37915 9.5 3.27891ZM10.125 17C9.02437 16.9995 7.93993 16.7349 6.96286 16.2282C5.98579 15.7215 5.14465 14.9876 4.51016 14.0883L16.3664 7.24375C16.8499 8.29121 17.062 9.4435 16.9832 10.5945C16.9045 11.7454 16.5373 12.8581 15.9156 13.8299C15.2939 14.8017 14.4376 15.6015 13.4257 16.1555C12.4138 16.7094 11.2787 16.9999 10.125 17Z" fill="#4C6FFF"/>
</svg>
