<svg xmlns="http://www.w3.org/2000/svg" width="20" height="20" viewBox="0 0 20 20" fill="none">
  <path d="M16.4476 9.86016C16.3844 9.82344 16.3148 9.78828 16.243 9.75391C16.3148 9.71953 16.3844 9.68437 16.4476 9.64766C16.8059 9.44396 17.1203 9.17141 17.3728 8.8457C17.6254 8.51999 17.8109 8.14755 17.9189 7.74982C18.0269 7.35209 18.0551 6.93693 18.002 6.52825C17.9489 6.11956 17.8155 5.72542 17.6094 5.36851C17.4033 5.0116 17.1287 4.69898 16.8013 4.44864C16.4739 4.1983 16.1003 4.01519 15.7018 3.90985C15.3034 3.80451 14.8881 3.77902 14.4797 3.83485C14.0714 3.89068 13.6782 4.02673 13.3226 4.23516C13.2594 4.27187 13.1937 4.31328 13.1289 4.35938C13.1351 4.28125 13.139 4.20312 13.139 4.125C13.139 3.2962 12.8098 2.50134 12.2238 1.91529C11.6377 1.32924 10.8428 1 10.014 1C9.18524 1 8.39039 1.32924 7.80434 1.91529C7.21829 2.50134 6.88905 3.2962 6.88905 4.125C6.88905 4.19844 6.88905 4.27656 6.8992 4.35938C6.83436 4.31484 6.76873 4.27187 6.70545 4.23516C6.34992 4.02673 5.95667 3.89068 5.54834 3.83485C5.14002 3.77902 4.72468 3.80451 4.32624 3.90985C3.92781 4.01519 3.55415 4.1983 3.22677 4.44864C2.89939 4.69898 2.62476 5.0116 2.41869 5.36851C2.21262 5.72542 2.07919 6.11956 2.02607 6.52825C1.97295 6.93693 2.00119 7.35209 2.10917 7.74982C2.21715 8.14755 2.40274 8.51999 2.65524 8.8457C2.90775 9.17141 3.22218 9.44396 3.58045 9.64766C3.64373 9.68437 3.71326 9.71953 3.78514 9.75391C3.71326 9.78828 3.64373 9.82344 3.58045 9.86016C3.22218 10.0639 2.90775 10.3364 2.65524 10.6621C2.40274 10.9878 2.21715 11.3603 2.10917 11.758C2.00119 12.1557 1.97295 12.5709 2.02607 12.9796C2.07919 13.3883 2.21262 13.7824 2.41869 14.1393C2.62476 14.4962 2.89939 14.8088 3.22677 15.0592C3.55415 15.3095 3.92781 15.4926 4.32624 15.598C4.72468 15.7033 5.14002 15.7288 5.54834 15.673C5.95667 15.6171 6.34992 15.4811 6.70545 15.2727C6.76873 15.2359 6.83436 15.1945 6.8992 15.1484C6.89295 15.2266 6.88905 15.3047 6.88905 15.3789C6.88905 16.2077 7.21829 17.0026 7.80434 17.5886C8.39039 18.1747 9.18524 18.5039 10.014 18.5039C10.8428 18.5039 11.6377 18.1747 12.2238 17.5886C12.8098 17.0026 13.139 16.2077 13.139 15.3789C13.139 15.3055 13.1351 15.2273 13.1289 15.1484C13.1937 15.193 13.2594 15.2359 13.3226 15.2727C13.796 15.5469 14.3334 15.6913 14.8805 15.6914C15.1553 15.691 15.429 15.6548 15.6945 15.5836C16.2915 15.4236 16.8277 15.0901 17.2352 14.6254C17.6427 14.1607 17.9032 13.5855 17.9838 12.9727C18.0644 12.3599 17.9615 11.737 17.6881 11.1827C17.4146 10.6283 16.983 10.1676 16.4476 9.85859V9.86016ZM8.13905 9.75391C8.13905 9.38307 8.24901 9.02055 8.45504 8.71221C8.66107 8.40387 8.9539 8.16355 9.29651 8.02163C9.63913 7.87972 10.0161 7.84259 10.3798 7.91493C10.7436 7.98728 11.0776 8.16586 11.3399 8.42808C11.6021 8.6903 11.7807 9.0244 11.853 9.38811C11.9254 9.75183 11.8882 10.1288 11.7463 10.4714C11.6044 10.814 11.3641 11.1069 11.0557 11.3129C10.7474 11.5189 10.3849 11.6289 10.014 11.6289C9.51676 11.6289 9.03985 11.4314 8.68822 11.0797C8.33659 10.7281 8.13905 10.2512 8.13905 9.75391ZM13.9476 5.31719C14.1609 5.19407 14.3963 5.11417 14.6404 5.08203C14.8845 5.04989 15.1326 5.06615 15.3704 5.12988C15.6083 5.19361 15.8312 5.30357 16.0266 5.45347C16.2219 5.60336 16.3859 5.79027 16.509 6.00352C16.6321 6.21676 16.712 6.45217 16.7441 6.69629C16.7763 6.94042 16.76 7.18848 16.6963 7.42632C16.6325 7.66416 16.5226 7.88712 16.3727 8.08247C16.2228 8.27782 16.0359 8.44173 15.8226 8.56484C15.3328 8.84844 14.3687 9.04375 13.0758 9.12656C12.9394 8.46512 12.5924 7.86566 12.0867 7.41797C12.8055 6.33828 13.4578 5.60078 13.9476 5.31719ZM10.014 2.25391C10.5113 2.25391 10.9882 2.45145 11.3399 2.80308C11.6915 3.15471 11.889 3.63163 11.889 4.12891C11.889 4.69453 11.5765 5.62813 11.0015 6.78984C10.3607 6.57527 9.66739 6.57527 9.02655 6.78984C8.45155 5.62813 8.13905 4.69453 8.13905 4.12891C8.13905 3.63163 8.33659 3.15471 8.68822 2.80308C9.03985 2.45145 9.51676 2.25391 10.014 2.25391ZM3.51873 6.00391C3.64181 5.79058 3.80572 5.60358 4.00108 5.45361C4.19644 5.30364 4.41944 5.19362 4.65733 5.12985C4.89522 5.06608 5.14334 5.0498 5.38753 5.08194C5.63171 5.11409 5.86717 5.19403 6.08045 5.31719C6.5703 5.60078 7.22264 6.33828 7.94139 7.41797C7.4353 7.86627 7.08825 8.46662 6.95233 9.12891C5.65936 9.04609 4.6953 8.85078 4.20545 8.56797C3.99181 8.44489 3.80454 8.28088 3.65437 8.08533C3.50419 7.88978 3.39406 7.66654 3.33027 7.42837C3.26648 7.19021 3.2503 6.9418 3.28264 6.69737C3.31497 6.45294 3.3952 6.21729 3.51873 6.00391ZM6.08045 14.1906C5.64979 14.4393 5.13799 14.5066 4.65764 14.3779C4.1773 14.2492 3.76776 13.935 3.51912 13.5043C3.27048 13.0736 3.20311 12.5618 3.33182 12.0815C3.46053 11.6011 3.77479 11.1916 4.20545 10.943C4.6953 10.6594 5.65936 10.4641 6.95233 10.3813C7.08873 11.0427 7.43574 11.6422 7.94139 12.0898C7.22264 13.1695 6.5703 13.907 6.08045 14.1906ZM10.014 17.2539C9.51676 17.2539 9.03985 17.0564 8.68822 16.7047C8.33659 16.3531 8.13905 15.8762 8.13905 15.3789C8.13905 14.8133 8.45155 13.8797 9.02655 12.718C9.66739 12.9325 10.3607 12.9325 11.0015 12.718C11.5765 13.8797 11.889 14.8133 11.889 15.3789C11.889 15.8762 11.6915 16.3531 11.3399 16.7047C10.9882 17.0564 10.5113 17.2539 10.014 17.2539ZM16.5094 13.5039C16.3863 13.7172 16.2224 13.9042 16.027 14.0542C15.8316 14.2042 15.6087 14.3142 15.3708 14.378C15.1329 14.4417 14.8847 14.458 14.6406 14.4259C14.3964 14.3937 14.1609 14.3138 13.9476 14.1906C13.4578 13.907 12.8055 13.1695 12.0867 12.0898C12.5928 11.6415 12.9398 11.0412 13.0758 10.3789C14.3687 10.4617 15.3328 10.657 15.8226 10.9398C16.0363 11.0629 16.2235 11.2269 16.3737 11.4225C16.5239 11.618 16.634 11.8413 16.6978 12.0794C16.7616 12.3176 16.7778 12.566 16.7455 12.8104C16.7131 13.0549 16.6329 13.2905 16.5094 13.5039Z" fill="#4C6FFF"/>
</svg>
