<svg xmlns="http://www.w3.org/2000/svg" width="14" height="14" viewBox="0 0 14 14" fill="none">
  <path d="M12.6449 3.25063L8.26987 12.4381C8.24607 12.4914 8.21184 12.5394 8.16922 12.5792C8.12659 12.6191 8.07643 12.65 8.02167 12.6702C7.96692 12.6903 7.90868 12.6993 7.85039 12.6967C7.79211 12.694 7.73494 12.6797 7.68226 12.6546C7.62959 12.6295 7.58246 12.5941 7.54366 12.5505C7.50487 12.5069 7.47518 12.456 7.45635 12.4008C7.43752 12.3456 7.42993 12.2871 7.43402 12.2289C7.43812 12.1707 7.45381 12.1139 7.48019 12.0619L9.05737 8.75H1.75003C1.66494 8.75005 1.58168 8.7253 1.51045 8.67875C1.43922 8.63221 1.38311 8.56591 1.34898 8.48797C1.31486 8.41002 1.3042 8.32382 1.31832 8.23991C1.33243 8.156 1.37071 8.07803 1.42847 8.01555L3.75597 5.49445L1.45417 3.38516C1.38912 3.32559 1.3436 3.24775 1.32356 3.16186C1.30353 3.07596 1.30993 2.98601 1.34193 2.90382C1.37392 2.82162 1.43001 2.75101 1.50283 2.70126C1.57566 2.6515 1.66183 2.62492 1.75003 2.625H12.25C12.3239 2.62502 12.3965 2.64374 12.4612 2.67941C12.5259 2.71508 12.5804 2.76655 12.6199 2.829C12.6593 2.89145 12.6822 2.96287 12.6866 3.03659C12.691 3.11032 12.6766 3.18395 12.6449 3.25063Z" fill="#A6B7D4"/>
</svg>
