<svg xmlns="http://www.w3.org/2000/svg" width="20" height="20" viewBox="0 0 20 20" fill="none">
  <path d="M14.8161 3.50084C14.4917 3.50038 14.1714 3.57273 13.8786 3.71255V3.18834C13.8788 2.66697 13.6928 2.16267 13.3541 1.76633C13.0154 1.36998 12.5462 1.10765 12.0312 1.0266C11.5162 0.94555 10.9891 1.05112 10.545 1.32428C10.101 1.59744 9.76904 2.02023 9.60911 2.51646C9.27598 2.33577 8.90163 2.24473 8.52274 2.25225C8.14384 2.25976 7.7734 2.36559 7.4477 2.55935C7.12201 2.75311 6.85225 3.02816 6.66484 3.35755C6.47743 3.68694 6.37881 4.05936 6.37864 4.43834V9.43834L6.0802 8.95943C5.79033 8.45919 5.3142 8.09405 4.7559 7.94382C4.19761 7.79359 3.60254 7.87049 3.10077 8.15772C2.59901 8.44494 2.23135 8.91913 2.07818 9.47663C1.925 10.0341 1.99876 10.6296 2.28332 11.1329C3.53332 13.7711 4.54348 15.6422 5.69895 16.8118C6.86614 17.9961 8.19114 18.5008 10.1286 18.5008C11.9514 18.4988 13.6988 17.7738 14.9877 16.4849C16.2766 15.196 17.0016 13.4486 17.0036 11.6258V5.68834C17.0036 5.10817 16.7732 4.55178 16.3629 4.14154C15.9527 3.7313 15.3963 3.50084 14.8161 3.50084ZM15.7536 11.6258C15.752 13.1172 15.1588 14.547 14.1043 15.6015C13.0498 16.656 11.62 17.2492 10.1286 17.2508C8.53645 17.2508 7.51067 16.8696 6.58723 15.9344C5.55364 14.8868 4.60207 13.1102 3.40207 10.5774C3.39504 10.5619 3.38722 10.5468 3.37864 10.5321C3.25432 10.3167 3.22065 10.0608 3.28504 9.82055C3.34943 9.58034 3.50661 9.37555 3.722 9.25123C3.93738 9.12691 4.19333 9.09324 4.43354 9.15763C4.67375 9.22202 4.87853 9.3792 5.00285 9.59459C5.00604 9.60085 5.00969 9.60685 5.01379 9.61255L6.47239 11.9563C6.54404 12.0719 6.65145 12.161 6.77833 12.21C6.9052 12.2591 7.04461 12.2654 7.17539 12.228C7.30618 12.1906 7.42119 12.1116 7.50299 12.0029C7.58479 11.8942 7.6289 11.7619 7.62864 11.6258V4.43834C7.62864 4.18969 7.72741 3.95124 7.90322 3.77542C8.07904 3.59961 8.3175 3.50084 8.56614 3.50084C8.81478 3.50084 9.05323 3.59961 9.22905 3.77542C9.40486 3.95124 9.50364 4.18969 9.50364 4.43834V9.12584C9.50364 9.2916 9.56948 9.45057 9.6867 9.56778C9.80391 9.68499 9.96288 9.75084 10.1286 9.75084C10.2944 9.75084 10.4534 9.68499 10.5706 9.56778C10.6878 9.45057 10.7536 9.2916 10.7536 9.12584V3.18834C10.7536 2.93969 10.8524 2.70124 11.0282 2.52542C11.204 2.34961 11.4425 2.25084 11.6911 2.25084C11.9398 2.25084 12.1782 2.34961 12.354 2.52542C12.5299 2.70124 12.6286 2.93969 12.6286 3.18834V9.12584C12.6286 9.2916 12.6945 9.45057 12.8117 9.56778C12.9289 9.68499 13.0879 9.75084 13.2536 9.75084C13.4194 9.75084 13.5784 9.68499 13.6956 9.56778C13.8128 9.45057 13.8786 9.2916 13.8786 9.12584V5.68834C13.8786 5.43969 13.9774 5.20124 14.1532 5.02542C14.329 4.84961 14.5675 4.75084 14.8161 4.75084C15.0648 4.75084 15.3032 4.84961 15.479 5.02542C15.6549 5.20124 15.7536 5.43969 15.7536 5.68834V11.6258Z" fill="#4C6FFF"/>
</svg>
